<?xml version="1.0" encoding="utf-8"?>
<!-- Generator: Adobe Illustrator 27.2.0, SVG Export Plug-In . SVG Version: 6.00 Build 0)  -->
<svg version="1.1" id="Layer_1" xmlns="http://www.w3.org/2000/svg" xmlns:xlink="http://www.w3.org/1999/xlink" x="0px" y="0px"
	 viewBox="0 0 64 64" style="enable-background:new 0 0 64 64;" xml:space="preserve">
<style type="text/css">
	.st0{fill:#FFFFFF;}
</style>
<g>
	<g id="Icon-Plus" transform="translate(28.000000, 278.000000)">
		<path id="Fill-38" class="st0" d="M4-222.1c-13.2,0-23.9-10.7-23.9-23.9c0-13.2,10.7-23.9,23.9-23.9s23.9,10.7,23.9,23.9
			C27.9-232.8,17.2-222.1,4-222.1L4-222.1z M4-267.3c-11.7,0-21.3,9.6-21.3,21.3s9.6,21.3,21.3,21.3s21.3-9.6,21.3-21.3
			S15.7-267.3,4-267.3L4-267.3z"/>
		<polygon id="Fill-39" class="st0" points="-8.7,-247.4 16.7,-247.4 16.7,-244.6 -8.7,-244.6 		"/>
		<polygon id="Fill-40" class="st0" points="2.6,-258.7 5.4,-258.7 5.4,-233.3 2.6,-233.3 		"/>
	</g>
</g>
</svg>
