<?xml version="1.0" encoding="utf-8"?>
<!-- Generator: Adobe Illustrator 27.2.0, SVG Export Plug-In . SVG Version: 6.00 Build 0)  -->
<svg version="1.1" id="Capa_1" xmlns="http://www.w3.org/2000/svg" xmlns:xlink="http://www.w3.org/1999/xlink" x="0px" y="0px"
	 viewBox="0 0 55 55" style="enable-background:new 0 0 55 55;" xml:space="preserve">
<g id="Layer_1">
</g>
<g id="Layer_2" transform="matrix(2.6412789821624756, 0, 0, 2.6271491050720215, -7.9238362312316895, -7.881446838378906)">
	<g>
		<path d="M18.7,3.9h-1.1c-0.6,0-1.1,0.4-1.1,1.1S17,6,17.7,6h1.1c1.2,0,2.1,1,2.1,2.1v1.2c0,0.6,0.4,1.1,1.1,1.1
			c0.6,0,1.1-0.4,1.1-1.1V8.2C23,5.8,21.1,3.9,18.7,3.9z"/>
		<path d="M21.9,16.7c-0.6,0-1.1,0.4-1.1,1.1v1.1c0,1.2-1,2.1-2.1,2.1h-1.1c-0.6,0-1.1,0.4-1.1,1.1c0,0.6,0.4,1.1,1.1,1.1h1.1
			c2.3,0,4.2-1.9,4.2-4.2v-1.1C23,17.1,22.5,16.7,21.9,16.7z"/>
		<path d="M9.2,20.9H8.1c-1.2,0-2.1-1-2.1-2.1v-1.1c0-0.6-0.4-1.1-1.1-1.1s-1.1,0.4-1.1,1.1v1.1c0,2.3,1.9,4.2,4.2,4.2h1.1
			c0.6,0,1.1-0.4,1.1-1.1C10.2,21.3,9.8,20.9,9.2,20.9z"/>
		<path d="M4.9,10.3C5.6,10.3,6,9.9,6,9.2V8.2C6,7,6.9,6,8.1,6h1.1c0.6,0,1.1-0.4,1.1-1.1S9.8,3.9,9.2,3.9H8.1
			c-2.3,0-4.2,1.9-4.2,4.2v1.1C3.9,9.8,4.3,10.3,4.9,10.3z"/>
		<path d="M21.9,12.4h-17c-0.6,0-1.1,0.4-1.1,1.1s0.4,1.1,1.1,1.1h17c0.6,0,1.1-0.4,1.1-1.1S22.5,12.4,21.9,12.4z"/>
	</g>
</g>
</svg>
