<?xml version="1.0" encoding="utf-8"?>
<!-- Generator: Adobe Illustrator 27.2.0, SVG Export Plug-In . SVG Version: 6.00 Build 0)  -->
<svg version="1.1" id="svg5" xmlns:svg="http://www.w3.org/2000/svg"
	 height="30px" width="30px"
	 xmlns="http://www.w3.org/2000/svg" xmlns:xlink="http://www.w3.org/1999/xlink" x="0px" y="0px" viewBox="0 0 48 48"
	 style="enable-background:new 0 0 48 48;" xml:space="preserve">
<style type="text/css">
	.st0{fill-rule:evenodd;clip-rule:evenodd;fill:#FFFFFF;}
</style>
<g id="layer1" transform="translate(-108,-100)">
	<path id="path11698" class="st0" d="M112.5,109c-0.8,0-1.5,0.7-1.5,1.5v4.5c0,0.8,0.7,1.5,1.5,1.5s1.5-0.7,1.5-1.5v-3h3
		c0.8,0,1.5-0.7,1.5-1.5s-0.7-1.5-1.5-1.5H112.5z"/>
	<path id="path11700" class="st0" d="M147,109c-0.8,0-1.5,0.7-1.5,1.5s0.7,1.5,1.5,1.5h3v3c0,0.8,0.7,1.5,1.5,1.5s1.5-0.7,1.5-1.5
		v-4.5c0-0.8-0.7-1.5-1.5-1.5H147z"/>
	<path id="path11702" class="st0" d="M151.5,131.5c-0.8,0-1.5,0.7-1.5,1.5v3h-3c-0.8,0-1.5,0.7-1.5,1.5s0.7,1.5,1.5,1.5h4.5
		c0.8,0,1.5-0.7,1.5-1.5V133C153,132.2,152.3,131.5,151.5,131.5z"/>
	<path id="path11704" class="st0" d="M112.5,131.5c-0.8,0-1.5,0.7-1.5,1.5v4.5c0,0.8,0.7,1.5,1.5,1.5h4.5c0.8,0,1.5-0.7,1.5-1.5
		s-0.7-1.5-1.5-1.5h-3v-3C114,132.2,113.3,131.5,112.5,131.5z"/>
	<path id="path11706" class="st0" d="M118.5,115c-0.8,0-1.5,0.7-1.5,1.5v15c0,0.8,0.7,1.5,1.5,1.5s1.5-0.7,1.5-1.5v-15
		C120,115.7,119.3,115,118.5,115z"/>
	<path id="path11708" class="st0" d="M123,115c-0.8,0-1.5,0.7-1.5,1.5v15c0,0.8,0.7,1.5,1.5,1.5s1.5-0.7,1.5-1.5v-15
		C124.5,115.7,123.8,115,123,115z"/>
	<path id="path11710" class="st0" d="M127.5,115c-0.8,0-1.5,0.7-1.5,1.5v15c0,0.8,0.7,1.5,1.5,1.5s1.5-0.7,1.5-1.5v-15
		C129,115.7,128.3,115,127.5,115z"/>
	<path id="path11712" class="st0" d="M132,115c-0.8,0-1.5,0.7-1.5,1.5v15c0,0.8,0.7,1.5,1.5,1.5s1.5-0.7,1.5-1.5v-15
		C133.5,115.7,132.8,115,132,115z"/>
	<path id="path11714" class="st0" d="M136.5,115c-0.8,0-1.5,0.7-1.5,1.5v15c0,0.8,0.7,1.5,1.5,1.5s1.5-0.7,1.5-1.5v-15
		C138,115.7,137.3,115,136.5,115z"/>
	<path id="path11716" class="st0" d="M141,115c-0.8,0-1.5,0.7-1.5,1.5v15c0,0.8,0.7,1.5,1.5,1.5s1.5-0.7,1.5-1.5v-15
		C142.5,115.7,141.8,115,141,115z"/>
	<path id="path11720" class="st0" d="M145.5,115c-0.8,0-1.5,0.7-1.5,1.5v7.8v2v5.2c0,0.8,0.7,1.5,1.5,1.5s1.5-0.7,1.5-1.5v-5.2v-2
		v-7.8C147,115.7,146.3,115,145.5,115z"/>
</g>
</svg>
