<svg class="svg-icon" style="width: 1em;height: 1em;vertical-align: middle;fill: currentColor;overflow: hidden;" viewBox="0 0 1024 1024" version="1.1" xmlns="http://www.w3.org/2000/svg"><path d="M207.494737 808.421053c10.778947 0 18.863158-8.084211 18.863158-18.863158V274.863158h75.452631c37.726316 0 67.368421-29.642105 67.368421-67.368421V137.431579h344.926316c10.778947 0 18.863158-8.084211 18.863158-18.863158s-8.084211-18.863158-18.863158-18.863158H350.315789 342.231579c-2.694737 0-2.694737 2.694737-2.694737 2.694737s-2.694737 0-2.694737 2.694737L194.021053 242.526316s-2.694737 2.694737-2.694737 5.389473v544.336843c-2.694737 8.084211 5.389474 16.168421 16.168421 16.168421z m97.010526-571.284211c-2.694737 0-2.694737 0 0 0-2.694737 0-2.694737 0 0 0H253.305263l78.147369-72.757895v45.810527c0 13.473684-13.473684 26.947368-26.947369 26.947368zM816.505263 204.8c-10.778947 0-18.863158 8.084211-18.863158 18.863158v646.736842c0 8.084211-8.084211 16.168421-16.168421 16.168421H301.810526c-10.778947 0-18.863158 8.084211-18.863158 18.863158s8.084211 18.863158 18.863158 18.863158h482.357895c29.642105 0 53.894737-24.252632 53.894737-53.894737v-646.736842c-2.694737-10.778947-10.778947-18.863158-21.557895-18.863158zM881.178947 37.726316c-8.084211-5.389474-18.863158-5.389474-26.947368 2.694737l-714.105263 916.210526c-5.389474 8.084211-5.389474 18.863158 2.694737 26.947368 2.694737 2.694737 8.084211 2.694737 10.778947 2.694737 5.389474 0 10.778947-2.694737 16.168421-8.08421l714.105263-916.210527c5.389474-5.389474 5.389474-16.168421-2.694737-24.252631z" fill="#101010" /><path d="M557.810526 361.094737c0-10.778947-8.084211-18.863158-18.863158-18.863158h-261.389473c-10.778947 0-18.863158 8.084211-18.863158 18.863158s8.084211 18.863158 18.863158 18.863158H538.947368c10.778947 0 18.863158-8.084211 18.863158-18.863158zM450.021053 512c0-10.778947-8.084211-18.863158-18.863158-18.863158h-150.905263c-10.778947 0-18.863158 8.084211-18.863158 18.863158s8.084211 18.863158 18.863158 18.863158H431.157895c10.778947 0 18.863158-8.084211 18.863158-18.863158zM277.557895 644.042105c-10.778947 0-18.863158 8.084211-18.863158 18.863158s8.084211 18.863158 18.863158 18.863158h37.726316c10.778947 0 18.863158-8.084211 18.863157-18.863158s-8.084211-18.863158-18.863157-18.863158h-37.726316zM455.410526 662.905263c0 10.778947 8.084211 18.863158 18.863158 18.863158h272.168421c10.778947 0 18.863158-8.084211 18.863158-18.863158s-8.084211-18.863158-18.863158-18.863158H474.273684c-10.778947 0-18.863158 8.084211-18.863158 18.863158zM565.894737 512c0 10.778947 8.084211 18.863158 18.863158 18.863158h158.989473c10.778947 0 18.863158-8.084211 18.863158-18.863158s-8.084211-18.863158-18.863158-18.863158h-158.989473c-10.778947 0-18.863158 8.084211-18.863158 18.863158zM743.747368 379.957895c10.778947 0 18.863158-8.084211 18.863158-18.863158s-8.084211-18.863158-18.863158-18.863158h-40.421052c-10.778947 0-18.863158 8.084211-18.863158 18.863158s8.084211 18.863158 18.863158 18.863158h40.421052z" fill="#101010" /></svg>