<?xml version="1.0" encoding="utf-8"?>
<!-- Generator: Adobe Illustrator 27.2.0, SVG Export Plug-In . SVG Version: 6.00 Build 0)  -->
<svg version="1.1" id="Capa_1" xmlns="http://www.w3.org/2000/svg" xmlns:xlink="http://www.w3.org/1999/xlink" x="0px" y="0px"
	 viewBox="0 0 800 800" style="enable-background:new 0 0 800 800;" xml:space="preserve">
<style type="text/css">
	.st0{fill:#2B602B;}
</style>
<g>
	<path class="st0" d="M765.5,569.7c-10.5-9.4-23.7-13.7-37.2-12.2c-22.6,2.6-52.2,8.7-83.5,15.1c-42.3,8.7-86,17.7-119.5,19.8
		c-28.9,1.8-81.6-5.7-97.2-13.9c-10.5-5.5-16.4-12.3-19.7-18.3h64.9c26.8,0,48.6-21.8,48.6-48.6v-38.1c0-26.8-21.8-48.6-48.6-48.6
		H295.4c-7.6-0.2-98.3-1.9-161.2,51.7c-11.1,9.5-20,18.5-27,26.6c-7.5-9.3-18.9-15.3-31.8-15.3h-58c-9.6,0-17.4,7.8-17.4,17.4v246.2
		c0,4.6,1.8,9.1,5.1,12.3c3.3,3.3,7.7,5.1,12.3,5.1h58c22.4,0,40.7-18.3,40.7-40.7V715c17.3,1.1,56.6,5.4,139.8,21
		c98.2,18.4,159.5,24.7,207.8,24.7c34.6,0,62.5-3.2,92.6-7.4c37.2-5.2,83.9-18.4,125.1-30.1c19.1-5.4,37.1-10.5,53.1-14.5
		c43-10.8,49.4-37.9,49.4-53.1v-44.4C783.9,595.5,777,580,765.5,569.7z M81.3,728.4c0,3.2-2.6,5.9-5.9,5.9H34.8V522.9h40.6
		c3.2,0,5.9,2.6,5.9,5.9V728.4L81.3,728.4z M749.1,655.5c0,3.7,0,13.5-23.1,19.3c-16.4,4.1-34.7,9.3-54,14.8
		c-40.2,11.4-85.7,24.2-120.5,29.1c-68.6,9.7-125.7,13.7-289.1-17c-84-15.8-125.7-20.5-146.3-21.6V550.7c0.6-0.8,1.2-1.6,1.7-2.5
		c4.5-8.1,15.5-24.8,39-44.9c53.7-45.8,136.8-43.4,137.6-43.4c0.2,0,0.5,0,0.7,0h178.2c7.6,0,13.7,6.1,13.7,13.7v38.1
		c0,7.6-6.1,13.7-13.7,13.7H295.1c-9.6,0-17.4,7.8-17.4,17.4s7.8,17.4,17.4,17.4h76.3c3.6,14.3,13.5,34.9,40.5,49.1
		c24.8,13,86.2,19.7,115.5,17.8c35.9-2.2,80.9-11.5,124.4-20.5c30.5-6.3,59.4-12.2,80.4-14.7c4.4-0.5,7.9,1.6,10,3.5
		c4.2,3.7,6.8,9.6,6.8,15.4L749.1,655.5L749.1,655.5z"/>
	<path class="st0" d="M755.3,30.9h-612c-24.6,0-44.7,20-44.7,44.7v286.9c0,24.6,20,44.7,44.7,44.7h612c24.6,0,44.7-20,44.7-44.7
		V75.6C800,51,780,30.9,755.3,30.9z M668.9,372.3H229.8c-4.6-52-45-93.7-96.3-100.5V161.5c49.7-6.6,89.2-46.1,95.8-95.8h440.1
		c6.6,49.7,46,89.2,95.7,95.8v110.3C713.9,278.6,673.5,320.4,668.9,372.3z M765.2,75.6v50.7c-30.5-6-54.5-30-60.5-60.5h50.6
		C760.7,65.8,765.2,70.2,765.2,75.6z M143.3,65.8H194c-5.9,30.5-30,54.6-60.5,60.5V75.6C133.5,70.2,137.9,65.8,143.3,65.8z
		 M133.5,362.5v-55.4c32.1,6.3,57,32.5,61.3,65.3h-51.4C137.9,372.3,133.5,367.9,133.5,362.5z M755.3,372.3h-51.4
		c4.3-32.7,29.2-59,61.2-65.2v55.4C765.2,367.9,760.7,372.3,755.3,372.3z"/>
	<path class="st0" d="M450.3,94.4c-68.7,0-124.7,55.9-124.7,124.7c0,68.7,55.9,124.7,124.7,124.7c68.7,0,124.7-55.9,124.7-124.7
		C574.9,150.3,519,94.4,450.3,94.4z M450.3,308.9c-49.5,0-89.8-40.3-89.8-89.8s40.3-89.8,89.8-89.8s89.8,40.3,89.8,89.8
		S499.8,308.9,450.3,308.9z"/>
	<path class="st0" d="M249.6,165.5c-29.6,0-53.6,24-53.6,53.6s24,53.6,53.6,53.6s53.6-24,53.6-53.6S279.2,165.5,249.6,165.5z
		 M249.6,237.8c-10.3,0-18.7-8.4-18.7-18.7s8.4-18.7,18.7-18.7c10.3,0,18.7,8.4,18.7,18.7S260,237.8,249.6,237.8z"/>
	<path class="st0" d="M650.9,165.5c-29.6,0-53.6,24-53.6,53.6s24,53.6,53.6,53.6s53.6-24,53.6-53.6S680.4,165.5,650.9,165.5z
		 M650.9,237.8c-10.3,0-18.7-8.4-18.7-18.7s8.4-18.7,18.7-18.7s18.8,8.4,18.8,18.7C669.6,229.4,661.2,237.8,650.9,237.8z"/>
</g>
</svg>
