<?xml version="1.0" encoding="utf-8"?>
<!-- Generator: Adobe Illustrator 27.2.0, SVG Export Plug-In . SVG Version: 6.00 Build 0)  -->
<svg version="1.1" id="Layer_1" xmlns="http://www.w3.org/2000/svg" xmlns:xlink="http://www.w3.org/1999/xlink" x="0px" y="0px"
	 viewBox="0 0 512 512" style="enable-background:new 0 0 512 512;" xml:space="preserve">
<style type="text/css">
	.st0{fill:#AAA621;}
	.st1{fill:#0071CE;}
	.st2{fill:#0055B8;}
	.st3{fill:#333E48;}
	.st4{fill:#FFFFFF;}
</style>
<path class="st0" d="M107.5,512h355.1c16,0,29-13.1,29-29V29c0-16-13.1-29-29-29H49.3c-16,0-29,13.1-29,29v395.7L107.5,512z"/>
<path class="st1" d="M107.5,512v-64.9c0-12.3-10.1-22.4-22.4-22.4H20.3L107.5,512z"/>
<rect x="87.2" y="51.8" class="st2" width="337.5" height="46.8"/>
<g>
	<rect x="167.5" y="352.6" class="st3" width="131.6" height="46.8"/>
	<path class="st3" d="M424.8,161.6h-31.3c-4.6,0-8.4-3.8-8.4-8.4s3.8-8.4,8.4-8.4h31.3c4.6,0,8.4,3.8,8.4,8.4
		C433.2,157.8,429.4,161.6,424.8,161.6z"/>
	<path class="st3" d="M424.8,220.3h-31.3c-4.6,0-8.4-3.8-8.4-8.4s3.8-8.4,8.4-8.4h31.3c4.6,0,8.4,3.8,8.4,8.4
		S429.4,220.3,424.8,220.3z"/>
	<path class="st3" d="M424.8,279h-31.3c-4.6,0-8.4-3.8-8.4-8.4s3.8-8.4,8.4-8.4h31.3c4.6,0,8.4,3.8,8.4,8.4
		C433.2,275.2,429.4,279,424.8,279z"/>
	<path class="st3" d="M350.3,161.6H87.2c-4.6,0-8.4-3.8-8.4-8.4s3.8-8.4,8.4-8.4h263.1c4.6,0,8.4,3.8,8.4,8.4
		C358.7,157.8,354.9,161.6,350.3,161.6z"/>
	<path class="st3" d="M350.3,220.3H87.2c-4.6,0-8.4-3.8-8.4-8.4s3.8-8.4,8.4-8.4h263.1c4.6,0,8.4,3.8,8.4,8.4
		C358.7,216.5,354.9,220.3,350.3,220.3z"/>
	<path class="st3" d="M350.3,279H87.2c-4.6,0-8.4-3.8-8.4-8.4s3.8-8.4,8.4-8.4h263.1c4.6,0,8.4,3.8,8.4,8.4
		C358.7,275.2,354.9,279,350.3,279z"/>
</g>
<path class="st4" d="M388.5,340.9c4.1,0,7.4,3.3,7.4,7.4v2c7.7,1.1,14.5,3.4,20.7,6.8c2.7,1.6,5.1,4.3,5.1,8.6
	c0,5.4-4.3,9.6-9.7,9.6c-1.7,0-3.4-0.4-5-1.3c-4-2.1-8-3.8-11.8-4.8v21.7c21.7,5.8,31,14.7,31,30.7s-12.3,26.2-30.2,28.2v7.6
	c0,4.1-3.3,7.4-7.4,7.4s-7.4-3.3-7.4-7.4v-7.7c-10.1-1.3-19.7-4.9-28.1-10c-3-1.9-4.9-4.7-4.9-8.6c0-5.6,4.3-9.7,9.8-9.7
	c1.9,0,3.9,0.7,5.6,1.9c6,3.8,11.7,6.6,18.3,8v-22.7c-20.5-5.6-30.7-13.4-30.7-30.4c0-15.7,12-26.2,30-28.1v-1.7
	C381.1,344.2,384.3,340.9,388.5,340.9z M381.8,387.1v-19.3c-6.8,1-9.8,4.4-9.8,9C371.9,381.3,373.9,384.3,381.8,387.1z M395.2,412.1
	v19.8c6.7-1,10.1-4.1,10.1-9.3C405.3,417.9,402.9,414.8,395.2,412.1z"/>
</svg>
