<?xml version="1.0" encoding="UTF-8"?>
<svg id="Capa_1" data-name="Capa 1" xmlns="http://www.w3.org/2000/svg" version="1.1" viewBox="0 0 40 40">
  <defs>
    <style>
      .cls-1 {
        fill: #fff;
        stroke-width: 0px;
      }
    </style>
  </defs>
  <path class="cls-1" d="M20.1,2.6C10.4,2.6,2.6,10.4,2.6,20s7.8,17.4,17.4,17.4,17.5-7.8,17.5-17.4S29.7,2.6,20.1,2.6ZM20.1,36.1c-8.9,0-16.1-7.2-16.1-16.1S11.2,3.9,20.1,3.9s16.1,7.2,16.1,16.1-7.3,16.1-16.1,16.1Z"/>
  <g>
    <path class="cls-1" d="M13.6,25.6c1.3-1,1-.9,2.8.6,2.1-1.6,1.5-1.6,3.5,0,2-1.6,1.5-1.6,3.5,0,1.9-1.5,1.7-1.5,2.8-.6v-12h-12.8v12ZM19.3,17.2v-.7c0-.4.3-.7.7-.7s.7.3.7.7v.7h.7c.4,0,.7.3.7.7s-.3.7-.7.7h-1.8c-.2,0-.4.2-.4.4,0,.5.6.4,1.1.4,1,0,1.9.6,1.9,1.6,0,1-.6,1.9-1.6,1.9v.7c0,.4-.3.7-.7.7s-.7-.3-.7-.7v-.7h-.7c-.4,0-.7-.3-.7-.7s.3-.7.7-.7h1.8c.2,0,.4-.2.4-.4s-.2-.4-.4-.4h-.7c-.8,0-1.6-.6-1.7-1.4-.2-1,.4-1.9,1.4-2.1Z"/>
    <path class="cls-1" d="M20,6.8c-7.2,0-13.2,5.9-13.2,13.2s5.9,13.2,13.2,13.2,13.2-5.9,13.2-13.2-5.9-13.2-13.2-13.2ZM27.4,27.7c-.5.2-.7,0-2.1-1.1-2,1.6-1.5,1.6-3.5,0-2,1.6-1.5,1.6-3.5,0-2,1.6-1.5,1.6-3.5,0-1.4,1.1-1.4,1.2-1.8,1.2s-.7-.3-.7-.7v-13.5c0-.8.6-1.4,1.4-1.4h12.8c.8,0,1.4.6,1.4,1.4,0,14.5,0,13.9-.4,14.1Z"/>
  </g>
</svg>