<?xml version="1.0" encoding="utf-8"?>
<!-- Generator: Adobe Illustrator 27.2.0, SVG Export Plug-In . SVG Version: 6.00 Build 0)  -->
<svg version="1.1" id="Capa_1" xmlns="http://www.w3.org/2000/svg" xmlns:xlink="http://www.w3.org/1999/xlink" x="0px" y="0px"
	 viewBox="0 0 16 10.6" style="enable-background:new 0 0 16 10.6;" xml:space="preserve">
<style type="text/css">
	.st0{fill-rule:evenodd;clip-rule:evenodd;fill:#101112;}
	.st1{fill:#101112;}
</style>
<g>
	<path class="st0" d="M15.8,10.4H0V9.3h15.8V10.4z"/>
	<path class="st1" d="M3,6.5V1.1H1.8L0,2.3v1.2l1.7-1.1h0.1v4.2H0v1.1h4.7V6.5H3z"/>
	<path class="st1" d="M5.5,3.1L5.5,3.1l1.2,0v0c0-0.6,0.4-1,1.1-1c0.6,0,1,0.4,1,0.9c0,0.4-0.2,0.8-1.1,1.7L5.6,6.7v0.9h4.6V6.5H7.3
		V6.4l1.3-1.2C9.7,4.2,10,3.6,10,2.9C10,1.7,9.1,1,7.8,1C6.4,1,5.5,1.8,5.5,3.1z"/>
	<path class="st1" d="M12.7,4.7h0.8c0.7,0,1.2,0.4,1.2,1c0,0.6-0.5,0.9-1.2,0.9c-0.7,0-1.2-0.4-1.2-0.9h-1.2c0.1,1.2,1,2,2.4,2
		C15,7.7,16,6.9,16,5.8c0-0.9-0.5-1.4-1.4-1.5V4.2c0.7-0.1,1.1-0.7,1.1-1.5c0-1-0.9-1.7-2.2-1.7c-1.4,0-2.2,0.7-2.3,2h1.1
		c0-0.6,0.5-0.9,1.1-0.9c0.7,0,1.1,0.3,1.1,0.9c0,0.5-0.4,0.9-1.1,0.9h-0.8V4.7z"/>
</g>
</svg>
