<?xml version="1.0" encoding="utf-8"?>
<!-- Generator: Adobe Illustrator 27.2.0, SVG Export Plug-In . SVG Version: 6.00 Build 0)  -->
<svg version="1.1" id="Capa_1" xmlns="http://www.w3.org/2000/svg" xmlns:xlink="http://www.w3.org/1999/xlink" x="0px" y="0px"
	 viewBox="0 0 621 684" style="enable-background:new 0 0 621 684;" xml:space="preserve">
<style type="text/css">
	.st0{fill:none;}
	.st1{fill:#9E1212;}
</style>
<path class="st0" d="M0,0h800v800H0V0z"/>
<g id="Shopicon">
	<path class="st1" d="M577.5,299.2L407,128.8V74.4c0-36.7-30-66.7-66.7-66.7H73.7C37,7.7,7,37.7,7,74.4v399.2
		c0,36.7,30,66.7,66.7,66.7h66.5l2,13.3c10.4,68.4,66.9,120,131.5,120H607V390.2C607,332.4,584.6,306.1,577.5,299.2z M340.3,94.1
		c-3.3-0.3-6.6-0.5-10-0.5c-26.8,0-51.9,10.4-70.7,29.2c-18.9,18.8-29.3,43.8-29.3,70.6c0,26.9,10.4,52,29.3,71l80.7,80.7v128.5
		H223.7V74.3h116.7v19.8H340.3z M73.7,74.3h50v399.2h-50V74.3z M540.3,606.9H273.7c-31.9,0-60.1-27.2-65.6-63.3l-0.5-3.4h132.7
		c36.7,0,66.7-30,66.7-66.7v-61.9l35.3,35.3l47.1-47.1l-77.7-77.7L323.6,234l-16.9-16.9c-6.3-6.3-9.8-14.7-9.7-23.7
		c0-8.9,3.5-17.2,9.7-23.5c7.1-7.1,17.1-10,26.7-9.1c7.6,0.7,14.9,3.6,20.5,9.1l69.7,69.7l106.9,106.9l-1.2-0.4l1.8,1.2
		c2.2,3.3,9.1,15.8,9.1,42.8v216.8H540.3z"/>
</g>
</svg>
