<svg version="1.1" id="Capa_1" xmlns="http://www.w3.org/2000/svg" xmlns:xlink="http://www.w3.org/1999/xlink" x="0px" y="0px"
	 viewBox="0 0 40 40" style="enable-background:new 0 0 40 40;" xml:space="preserve">
<style type="text/css">
	.st0{fill:#FFFFFF;}
	.st1{fill:#13B000;}
</style>
<path class="st0" d="M6.8,20c0,7.3,5.9,13.2,13.2,13.2c7.3,0,13.2-5.9,13.2-13.2c0,0,0,0,0,0c0-7.3-5.9-13.2-13.2-13.2
	C12.8,6.8,6.8,12.7,6.8,20C6.8,20,6.8,20,6.8,20z"/>
<path class="st0" d="M20.1,2.6C10.4,2.6,2.6,10.4,2.6,20s7.8,17.4,17.4,17.4S37.5,29.6,37.5,20S29.7,2.6,20.1,2.6z M20.1,36.1
	c-8.9,0-16.1-7.2-16.1-16.1S11.2,3.9,20.1,3.9S36.2,11.1,36.2,20S28.9,36.1,20.1,36.1z"/>
<g>
	<path class="st1" d="M25.5,21.2l-3.2-0.6L22,20.1l-1,5l-0.4-2.9l0.3-0.5l0-0.5c-0.6,0-0.8,0-1.4,0l0,0.5l0.3,0.5L19.3,25l-1.4-5
		c0.1,0,0.1,0.1,0.2,0.1c0.3,0.1,1,0.2,1.7,0.2c0.7,0,1.5,0,1.8-0.1c0.1-0.1,0.3-0.1,0.4-0.2c0.5-0.3,0.8-0.7,1.1-1.1
		c0.3-0.5,0.5-1.1,0.7-1.8c0.3-0.2,0.5-0.4,0.6-0.8c0.2-0.4,0.2-0.9,0.2-1.4l0-0.2l-0.2-0.1c-0.1,0-0.1-0.1-0.2-0.1
		c0.4-1.9,0.3-3.1-0.9-4.2c-1.7-1.2-5.5-1.3-7.2,0.1c-0.9,1-0.9,1.8-0.7,4.1c0,0-0.1,0.1-0.1,0.1l-0.2,0.1l0,0.2
		c0,0.6,0.1,1.1,0.2,1.5c0.1,0.3,0.4,0.6,0.6,0.7c0.2,0.6,0.4,1.2,0.6,1.7c0.3,0.5,0.6,0.9,1.1,1.2l-0.3,0.5l-3,0.7
		c-1.8,1.6-2.1,4.6-2.1,6.4h15.1C27.8,25.6,26.9,22.5,25.5,21.2z M17.4,18.5c-0.3-0.5-0.5-1.1-0.6-1.7l-0.1-0.2l-0.2-0.1
		c-0.2-0.1-0.3-0.2-0.4-0.4c-0.1-0.2-0.2-0.6-0.2-0.9c0,0,0.1,0,0.1,0c0.1,0,0.1,0,0.2,0l0.3,0l0.1-0.3c0.1-0.4,0.2-0.8,0.4-1.2
		c0.6,0.1,1.3-0.5,1.8-0.2c1.3,0.7,2.9,0.5,3.9,0.3c0.2,0.3,0.3,0.7,0.4,1.1l0.1,0.3l0.3,0c0.1,0,0.1,0,0.2,0c0,0,0.1,0,0.1,0
		c0,0.4-0.1,0.7-0.2,0.9c-0.1,0.2-0.2,0.3-0.4,0.4l-0.2,0.1l-0.1,0.2c-0.2,0.7-0.4,1.3-0.7,1.8c-0.3,0.5-0.6,0.8-1.1,1
		c-0.2,0.1-0.9,0.1-1.5,0.1c-0.6,0-1.2-0.1-1.4-0.1C18,19.3,17.7,18.9,17.4,18.5z"/>
	<path class="st1" d="M20.2,27.6l0.8-2.6l-0.4-2.9l0.3-0.5l0-0.5c-0.6,0-0.8,0-1.4,0l0,0.5l0.3,0.5L19.3,25
		C19.3,25,20.2,27.6,20.2,27.6z"/>
</g>
</svg>
