<?xml version="1.0" encoding="UTF-8"?>
<svg id="Layer_1" data-name="Layer 1" xmlns="http://www.w3.org/2000/svg" version="1.1" viewBox="0 0 38 33">
  <defs>
    <style>
      .cls-1 {
        fill: #fff;
        stroke-width: 0px;
      }
    </style>
  </defs>
  <path class="cls-1" d="M27.5,32.5h.8v-10.8c0-.5-.5-1-1-1H10.7c-.6,0-1,.5-1,1v10.8h17.7Z"/>
  <path class="cls-1" d="M32.9,6.2h-2.6V1.9c0-.7-.6-1.2-1.3-1.2H9c-.7,0-1.3.5-1.3,1.2v4.3h-2.6C2.8,6.2.4,8.5.4,10.7v10c0,2.3,2.3,5.1,4.7,5.1h1.5c.4,0,.5,0,.5-1.2v-3.6c0-1.6,1.3-2.7,2.7-2.7h18.5c1.5,0,2.6,1.8,2.6,3.3v2.9c0,1.2,0,1.2.4,1.2h1.5c2.3,0,4.7-2.2,4.7-4.5v-10.7c0-2.3-2.3-4.5-4.6-4.5ZM30.9,11.3c-.7,0-1.3-.6-1.3-1.3s.6-1.3,1.3-1.3,1.3.6,1.3,1.3-.6,1.3-1.3,1.3Z"/>
</svg>