<?xml version="1.0" encoding="utf-8"?>
<!-- Generator: Adobe Illustrator 27.2.0, SVG Export Plug-In . SVG Version: 6.00 Build 0)  -->
<svg version="1.1" id="Capa_1" xmlns:serif="http://www.serif.com/"
	 xmlns="http://www.w3.org/2000/svg" xmlns:xlink="http://www.w3.org/1999/xlink" x="0px" y="0px" viewBox="0 0 589.3 588.3"
	 style="enable-background:new 0 0 589.3 588.3;" xml:space="preserve">
<style type="text/css">
	.st0{fill-rule:evenodd;clip-rule:evenodd;fill:#FFFFFF;}
	.st1{fill-rule:evenodd;clip-rule:evenodd;fill:#13B000;}
	.st2{fill:none;stroke:#FFFFFF;stroke-width:40;stroke-miterlimit:10;}
</style>
<circle class="st0" cx="293.2" cy="295.3" r="182.3"/>
<g transform="matrix(1,0,0,1,-144,-288)">
	<g transform="matrix(1.2,0,0,1,-29.6,-3)">
		<path class="st1" d="M476.9,524.8H301.2v158.1c0,4.7,1.5,9.1,4.3,12.4c2.8,3.3,6.5,5.2,10.4,5.2c33.1,0,113.3,0,146.4,0
			c3.9,0,7.6-1.8,10.4-5.2c2.7-3.3,4.3-7.8,4.3-12.4C476.9,638.5,476.9,524.8,476.9,524.8z"/>
	</g>
	<path class="st1" d="M331.8,521.8c0,0,13.9-27.8,21.5-43c3-6,9.1-9.7,15.7-9.7c28.9,0,107.5,0,136.4,0c6.6,0,12.7,3.7,15.7,9.7
		c7.6,15.2,21.5,43,21.5,43"/>
	<path class="st0" d="M505.5,460.3H369c-10,0-19.1,5.6-23.6,14.6L324,517.8c-0.7,1.2-1,2.6-1,4.1V680c0,7,2.8,13.7,7.7,18.6
		c4.9,4.9,11.6,7.7,18.6,7.7c39.7,0,136,0,175.7,0c7,0,13.7-2.8,18.6-7.7c4.9-4.9,7.7-11.6,7.7-18.6c0-44.5,0-158.1,0-158.1
		c0-1.5-0.4-2.9-1-4.1L529,474.9C524.6,466,515.4,460.3,505.5,460.3z M472.4,530.6V557c0,4.7-1.8,9.1-5.2,12.4
		c-3.3,3.3-7.8,5.2-12.4,5.2c-9.8,0-25.4,0-35.1,0c-4.7,0-9.1-1.8-12.4-5.2c-3.3-3.3-5.2-7.8-5.2-12.4v-26.3h-61.5V680
		c0,2.3,0.9,4.6,2.6,6.2c1.6,1.6,3.9,2.6,6.2,2.6h175.7c2.3,0,4.6-0.9,6.2-2.6c1.6-1.6,2.6-3.9,2.6-6.2V530.6H472.4z M367,671.2
		h17.6c4.8,0,8.8-3.9,8.8-8.8c0-4.8-3.9-8.8-8.8-8.8H367c-4.8,0-8.8,3.9-8.8,8.8C358.2,667.2,362.1,671.2,367,671.2z M367,636h35.1
		c4.8,0,8.8-3.9,8.8-8.8s-3.9-8.8-8.8-8.8H367c-4.8,0-8.8,3.9-8.8,8.8S362.1,636,367,636z M454.8,557h-35.1v-26.3h35.1V557z
		 M465.2,477.9L471,513h57.4l-15.1-30.3c-1.5-3-4.5-4.9-7.9-4.9H465.2z M409.3,477.9H369c-3.3,0-6.4,1.9-7.9,4.9L346,513h57.4
		L409.3,477.9z M421.3,513l5.9-35.1h20.2l5.9,35.1H421.3z"/>
</g>
<circle class="st2" cx="293.2" cy="295.3" r="250"/>
</svg>
