<?xml version="1.0" encoding="UTF-8"?>
<svg id="Capa_1" xmlns="http://www.w3.org/2000/svg" version="1.1" viewBox="0 0 768 768">
  <!-- Generator: Adobe Illustrator 29.2.0, SVG Export Plug-In . SVG Version: 2.1.0 Build 108)  -->
  <defs>
    <style>
      .st0 {
        fill: #fff;
      }
    </style>
  </defs>
  <path class="st0" d="M579,260.5l-45-163-263,74,42,163,266-74Z"/>
  <path class="st0" d="M246,436.4h0c0,.1,43-12.8,43-12.8L185,19.5H7v57h128.8l90.7,365.8,19.5-5.9Z"/>
  <path class="st0" d="M749.4,497.1l-5.4-22.6-274.3,76.3,21.2,66.5,270.1-78.7-10-42-1.6.4Z"/>
  <path class="st0" d="M408.5,529.4l19.5-19.5-35.4-35.4-19.5,19.5c-11.3-7.5-24-13.1-37.6-16.6v-29.2h-62.8v29.2c-13.8,3.6-26.8,9.3-38.3,17.1l-18.7-18.7-35.4,35.4,19,19c-7.3,11.1-12.7,23.6-16.2,36.8h-29.2v62.8h29.2c3.5,13.6,9.1,26.3,16.7,37.6l-19.5,19.5,35.4,35.4,19.5-19.5c11.4,7.6,24.1,13.2,37.7,16.7v29.1h62.6v-29.1c13.3-3.4,25.7-8.9,36.9-16.2l20.3,20.3,35.4-35.4-20-20c7.8-11.6,13.6-24.6,17.2-38.5h29.1v-62.4h-29.1c-3.5-13.6-9.1-26.4-16.7-37.8h0ZM304.2,649.8c-28.4,0-51.5-23-51.5-51.5s23-51.5,51.5-51.5,51.5,23,51.5,51.5-23.1,51.5-51.5,51.5h0Z"/>
  <path class="st0" d="M342.8,442.3c63.3-11.2,95.6,32.4,95.6,32.4l.3.3c.5.5.9,1,1.3,1.5,6.4,7.8,10.9,19.4,10.9,19.4l2.7,8.4,307.2-84.9-44-163-394,108,19.8,77.8h0Z"/>
</svg>