<?xml version="1.0" encoding="utf-8"?>
<!-- Generator: Adobe Illustrator 27.2.0, SVG Export Plug-In . SVG Version: 6.00 Build 0)  -->
<svg version="1.1" id="Layer_1" xmlns="http://www.w3.org/2000/svg" xmlns:xlink="http://www.w3.org/1999/xlink" x="0px" y="0px"
	 viewBox="0 0 75 75" style="enable-background:new 0 0 75 75;" xml:space="preserve">
<style type="text/css">
	.st0{fill:#231F20;}
</style>
<g>
	<path class="st0" d="M37.5,6.1c-17.3,0-31.4,14-31.4,31.4s14,31.4,31.4,31.4s31.4-14,31.4-31.4S54.8,6.1,37.5,6.1z M37.5,63.4
		c-14.4,0-26.1-11.7-26.1-26.1s11.7-26.1,26.1-26.1s26.1,11.7,26.1,26.1S51.9,63.4,37.5,63.4z"/>
	<g>
		<circle class="st0" cx="27.4" cy="48.1" r="3.1"/>
		<circle class="st0" cx="43.6" cy="48.1" r="3.1"/>
		<path class="st0" d="M51.9,23.8H49c-2,0-2.3,1.6-2.3,1.6l-0.1,0.6v0l-0.7,3c-0.1,0.4-0.6,1.2-2,1.2H20.9L25,43.2h22.2l2-10.9
			l0.6-2.7l0,0l0-0.2c0.1-0.5,0.6-1.8,2.6-1.8h0.2c0.5,0,1.6-0.2,1.6-1.7v-0.2C54.1,23.7,51.9,23.8,51.9,23.8z"/>
	</g>
</g>
</svg>
