<?xml version="1.0" encoding="iso-8859-1"?>
<!-- Uploaded to: SVG Repo, www.svgrepo.com, Generator: SVG Repo Mixer Tools -->
<svg fill="#000000" height="800px" width="800px" version="1.1" id="Layer_1" xmlns="http://www.w3.org/2000/svg" xmlns:xlink="http://www.w3.org/1999/xlink" 
	 viewBox="0 0 511.997 511.997" xml:space="preserve">
<g>
	<g>
		<path d="M286.559,314.621h-61.088c-5.579,0-10.117-4.539-10.117-10.117v-22.05c0-5.579,4.539-10.117,10.117-10.117h80.133
			c4.931,0,8.927-3.997,8.927-8.927s-3.996-8.927-8.927-8.927h-40.661v-25.439c0-4.93-3.996-8.927-8.927-8.927
			c-4.93,0-8.927,3.997-8.927,8.927v25.439h-21.617c-15.424,0-27.972,12.548-27.972,27.972v22.05
			c0,15.424,12.548,27.972,27.972,27.972h61.088c5.579,0,10.117,4.539,10.117,10.117v22.05c0,5.579-4.539,10.117-10.117,10.117
			h-80.133c-4.93,0-8.927,3.997-8.927,8.927s3.997,8.927,8.927,8.927h40.661v25.439c0,4.93,3.997,8.927,8.927,8.927
			c4.931,0,8.927-3.997,8.927-8.927v-25.439h21.617c15.424,0,27.972-12.548,27.972-27.972v-22.05
			C314.53,327.169,301.982,314.621,286.559,314.621z"/>
	</g>
</g>
<g>
	<g>
		<path d="M509.984,281.654c-9.193-25.275-22.155-49.007-38.526-70.535c-2.983-3.924-8.583-4.686-12.51-1.703
			c-3.924,2.984-4.687,8.586-1.702,12.51c15.282,20.098,27.381,42.247,35.961,65.835c1.76,4.833,1.077,10.019-1.87,14.229
			c-2.466,3.523-6.126,5.766-10.266,6.407c-28.534-97.332-118.619-168.621-225.056-168.621S59.492,211.065,30.959,308.398
			c-4.159-0.642-7.837-2.894-10.319-6.436c-2.92-4.166-3.602-9.285-1.872-14.045C31.908,251.7,52.874,219.565,81.083,192.4
			c23.547-22.679,50.945-40.341,81.434-52.496c30.468-12.148,62.5-18.195,95.24-17.971c66.725,0.437,129.475,26.68,176.693,73.897
			c3.485,3.486,9.138,3.486,12.624,0c3.486-3.486,3.486-9.139,0-12.624c-37.238-37.237-83.506-62.272-133.844-73.078
			c9.466-8.475,15.437-20.778,15.437-34.453c0-25.503-20.749-46.251-46.251-46.251c-9.808,0-18.904,3.077-26.396,8.303
			c-7.704-5.392-16.847-8.308-26.446-8.308c-25.498,0-46.243,20.75-46.243,46.255c0,13.713,6.003,26.046,15.512,34.523
			c-14.574,3.159-28.914,7.532-42.938,13.123c-32.645,13.016-61.985,31.932-87.205,56.221
			C38.51,208.61,16.065,243.025,1.987,281.824c-3.69,10.156-2.182,21.514,4.033,30.385c4.927,7.031,12.329,11.816,20.572,13.536
			c-3.308,15.661-5.061,31.888-5.061,48.518v34.531c0,40.685,33.099,73.785,73.785,73.785h42.314c4.93,0,8.927-3.997,8.927-8.927
			c0-4.93-3.997-8.927-8.927-8.927H95.314c-30.84,0-55.93-25.09-55.93-55.93v-34.531c0-119.451,97.181-216.632,216.632-216.632
			c119.45,0,216.631,97.181,216.631,216.632v34.531c0,30.84-25.09,55.93-55.93,55.93H171.49c-4.93,0-8.927,3.997-8.927,8.927
			c0,4.93,3.997,8.927,8.927,8.927h245.226c40.685,0,73.785-33.1,73.785-73.785v-34.531c0-16.632-1.753-32.859-5.061-48.521
			c8.227-1.72,15.612-6.497,20.523-13.513C512.208,303.311,513.708,291.881,509.984,281.654z M282.414,47.276
			c15.658,0,28.397,12.74,28.397,28.397s-12.738,28.397-28.397,28.397c-15.658,0-28.398-12.74-28.398-28.397
			S266.756,47.276,282.414,47.276z M229.572,47.272c4.923,0,9.652,1.252,13.836,3.593c-4.579,7.175-7.246,15.683-7.246,24.808
			s2.666,17.632,7.245,24.806c-4.183,2.34-8.912,3.592-13.835,3.592c-15.653,0-28.388-12.741-28.388-28.4
			S213.919,47.272,229.572,47.272z"/>
	</g>
</g>
</svg>