<?xml version="1.0" encoding="utf-8"?>
<!-- Generator: Adobe Illustrator 27.2.0, SVG Export Plug-In . SVG Version: 6.00 Build 0)  -->
<svg version="1.1" id="Layer_1" xmlns="http://www.w3.org/2000/svg" xmlns:xlink="http://www.w3.org/1999/xlink" x="0px" y="0px"
	 viewBox="0 0 25 25" style="enable-background:new 0 0 25 25;" xml:space="preserve">
<path d="M18,15.1c1-1.5,1.5-3.2,1.5-5.1c0-5.3-4.3-9.5-9.5-9.5c-5.3,0-9.5,4.3-9.5,9.5s4.3,9.5,9.5,9.5c1.9,0,3.7-0.6,5.2-1.6
	l0.4-0.3l6.8,6.8l2.1-2.1l-6.8-6.7L18,15.1z M15.3,4.6c1.4,1.4,2.2,3.3,2.2,5.3s-0.8,3.9-2.2,5.3c-1.4,1.4-3.3,2.2-5.3,2.2
	s-3.9-0.8-5.3-2.2S2.4,12,2.4,9.9S3.2,6,4.6,4.6S7.9,2.4,10,2.4C12,2.4,13.9,3.2,15.3,4.6z"/>
</svg>
