<?xml version="1.0" encoding="UTF-8"?>
<svg id="Capa_1" data-name="Capa 1" xmlns="http://www.w3.org/2000/svg" version="1.1" viewBox="0 0 20 20">
  <defs>
    <style>
      .cls-1 {
        fill: #fff;
        stroke-width: 0px;
      }
    </style>
  </defs>
  <path class="cls-1" d="M16,.4c-2,0-3.6,1.6-3.6,3.6s0,.3,0,.4l-5.9,3c-.7-.6-1.6-1-2.5-1-2,0-3.6,1.6-3.6,3.6s1.6,3.6,3.6,3.6,1.8-.4,2.5-1l5.9,3v.4c0,2,1.6,3.6,3.6,3.6s3.6-1.6,3.6-3.6-1.6-3.6-3.6-3.6-1.8.4-2.5,1l-5.9-3v-.9l5.9-3c.7.6,1.6,1,2.5,1,2,0,3.6-1.6,3.6-3.6s-1.6-3.6-3.6-3.6h0Z"/>
</svg>