<?xml version="1.0" encoding="utf-8"?>
<!-- Generator: Adobe Illustrator 27.2.0, SVG Export Plug-In . SVG Version: 6.00 Build 0)  -->
<svg version="1.1" id="Capa_1" xmlns="http://www.w3.org/2000/svg" xmlns:xlink="http://www.w3.org/1999/xlink" x="0px" y="0px"
	 viewBox="0 0 200 190.9" style="enable-background:new 0 0 200 190.9;" xml:space="preserve">
<style type="text/css">
	.st0{fill:#4D4D4D;}
</style>
<g>
	<path class="st0" d="M35.6,190.9h128.6c19.6-0.1,35.6-16,35.6-35.6V35.7c0-19.7-16-35.7-35.6-35.7H35.6C15.9,0-0.1,16-0.1,35.7
		v119.6C0,175,16,190.9,35.6,190.9z M16.2,155.3V35.7c0-10.7,8.7-19.4,19.4-19.4h128.6c10.7,0,19.4,8.7,19.4,19.4v119.6
		c0,10.7-8.7,19.4-19.4,19.4H35.6C24.9,174.7,16.2,166,16.2,155.3z"/>
	<path class="st0" d="M46.2,58.2c-1.8,3.3-4.2,6.2-7.1,8.5c-3.6,3.1-7.6,5.8-11.9,7.8l-1.4,0.6v13.1l3.2-1.1
		c3.3-1.3,6.4-2.9,9.4-4.7c1.6-1,3.2-2,4.5-2.9v51.7h13.2V56.8h-9.4L46.2,58.2z M91.7,117.6c1.4-1.4,4.7-4.3,9.6-8.5
		c4.7-3.9,9.2-8,13.4-12.4c2.5-2.7,4.5-5.8,5.9-9.2c1.2-2.9,1.9-6,1.9-9.1c0.1-5.8-2.3-11.4-6.5-15.4c-4.8-4.3-11-6.5-17.4-6.2
		c-6.3-0.3-12.4,1.7-17.3,5.7C76.7,66.8,74,72.7,73.7,79l-0.2,2.4l13.6,1.4v-2.6C87,77,88,74,90.2,71.6c2.2-2.1,5.1-3.2,8.2-3
		c2.9-0.1,5.7,0.9,7.8,2.8c1.9,1.8,2.9,4.2,2.9,6.8c-0.2,3.2-1.4,6.3-3.5,8.8c-4.4,5.3-9.4,10.1-14.8,14.3
		c-4.1,3.3-7.9,6.9-11.4,10.8c-2.6,2.9-4.6,6.3-6,9.9c-0.8,2.2-1.2,4.5-1.2,6.8v2.4h50.5v-12.9H91L91.7,117.6z M173.3,95.7
		c-1.6-2.1-3.6-3.8-6-5c1.4-1.1,2.7-2.5,3.7-4c1.8-2.8,2.8-6.1,2.8-9.4c0-3.6-1-7.1-2.9-10.1c-2-3.2-4.8-5.9-8.3-7.5
		c-3.6-1.8-7.5-2.7-11.5-2.7c-5.6-0.2-11,1.7-15.3,5.3c-4.3,3.8-7.1,9-7.9,14.6l-0.4,2.4l13.2,2.4l0.4-2.4c0.3-3,1.5-5.8,3.5-8
		c1.8-1.7,4.2-2.6,6.7-2.5c2.4-0.1,4.8,0.7,6.5,2.4c1.6,1.6,2.5,3.8,2.4,6c0.2,2.7-1,5.3-3.3,6.8c-2.5,1.6-5.5,2.4-8.5,2.4h-1.1
		l-2.4-0.3l-1.5,13.2l3.4-0.9c1.8-0.5,3.6-0.8,5.4-0.8c3-0.1,5.9,1,8.1,3.1c2.1,2.1,3.2,5,3.1,8c0.1,3.2-1.2,6.4-3.5,8.6
		c-2.2,2.3-5.3,3.6-8.5,3.5c-2.6,0.1-5.1-0.8-7.1-2.6c-2.3-2.5-3.8-5.7-4.3-9.2l-0.4-2.1l-12.9,1.7l0.2,2.4c0.4,6,3.2,11.6,7.6,15.6
		c4.6,4.1,10.6,6.2,16.7,6c6.8,0.2,13.4-2.4,18.4-7.1c4.8-4.4,7.5-10.6,7.5-17.2C177.3,103.7,175.9,99.3,173.3,95.7L173.3,95.7z"/>
</g>
</svg>
